<svg id="Layer_1" data-name="Layer 1" xmlns="http://www.w3.org/2000/svg" viewBox="0 0 792 612"><title>Hauskey_Blue</title><rect x="469.39159" y="176.09031" width="15.0947" height="15.104" style="fill:#01142A"/><rect x="487.73239" y="176.09031" width="15.10061" height="15.104" style="fill:#01142A"/><rect x="469.39159" y="194.4326" width="15.0947" height="15.105" style="fill:#01142A"/><rect x="487.73239" y="194.4326" width="15.10061" height="15.105" style="fill:#01142A"/><polygon points="114.241 325.363 73.866 325.363 73.866 276.868 46.519 276.868 46.519 278.14 46.519 407.956 73.866 407.956 73.866 351.587 114.241 351.587 114.241 407.956 141.507 407.956 141.507 276.868 114.241 276.868 114.241 325.363" style="fill:#01142A"/><path d="M229.437,311.6064v7.5069a43.90267,43.90267,0,0,0-12.10251-7.8858,41.35983,41.35983,0,0,0-16.5659-3.3369c-12.72169-.0195-23.66609,4.8682-32.53569,14.4785-8.8926,9.6211-13.3481,22.0245-13.3398,36.9522-.0113,14.41307,4.601,26.64159,13.7881,36.3867,9.1406,9.7363,20.1464,14.6934,32.74409,14.6934h.0386a40.439,40.439,0,0,0,15.72411-3.0342,44.69779,44.69779,0,0,0,12.249-7.8731v8.462h26.398V310.332H229.437Zm-5.99461,66.98051a23.308,23.308,0,0,1-17.7285,7.418,22.83793,22.83793,0,0,1-17.40819-7.53808c-4.7286-5.06348-7.0923-11.4531-7.1001-19.4072.0078-7.9131,2.3374-14.2217,6.9736-19.1826a22.80433,22.80433,0,0,1,17.44919-7.4317c7.2661.0186,13.0923,2.4258,17.814,7.3086,4.6811,4.8838,7.0307,11.1885,7.0415,19.2197C230.47309,367.1787,228.12349,373.63086,223.44239,378.58691Z" style="fill:#01142A"/><path d="M294.70259,295.5742h.0508a13.76969,13.76969,0,1,0-.0508,0Z" style="fill:#01142A"/><path d="M333.41109,295.5742h.0513a13.77969,13.77969,0,1,0-.0513,0Z" style="fill:#01142A"/><path d="M330.57179,358.1855c.01321,8.9004-.5327,14.7647-1.4141,17.129a15.47042,15.47042,0,0,1-5.7012,7.73047,16.2852,16.2852,0,0,1-9.3994,2.61621,15.61857,15.61857,0,0,1-9.3022-2.6455,14.96969,14.96969,0,0,1-5.44389-7.4795c-1.13571-3.16015-1.77631-9.292-1.77341-18.13773V310.332H270.88232v40.8604c.00684,15.2676.90381,25.792,2.8584,31.85252a38.344,38.344,0,0,0,14.04637,20.128c6.7178,4.8476,15.4341,7.2285,26.0425,7.2285,9.7847,0,17.9717-2.0323,24.46141-6.1895a38.48431,38.48431,0,0,0,14.63379-17.73631c2.7539-6.48145,4.0249-17.89747,4.0337-34.57909V310.332h-26.3867Z" style="fill:#01142A"/><path d="M409.582,347.8672l-8.7343-4.3652c-3.7237-1.8272-6.0645-3.3311-6.7403-4.127a3.94692,3.94692,0,0,1-1.125-2.6875,3.85278,3.85278,0,0,1,1.7656-3.2266,9.12724,9.12724,0,0,1,5.5362-1.4482c4.3496-.0195,9.5527,2.7041,15.4453,8.5449l.8906.8887,16.4502-16.4424-.668-.8721a39.798,39.798,0,0,0-32.2929-16.2412c-9.2832-.0146-17.0586,2.7627-23.0967,8.3252a26.537,26.537,0,0,0-9.11041,20.2041c-.0107,12.2969,8.19051,22.4268,23.77351,30.2373l8.0361,4.0176c6.8369,3.42774,9.7822,6.8545,9.708,9.62012a5.32522,5.32522,0,0,1-2.4101,4.23828,10.6019,10.6019,0,0,1-6.8155,2.002c-2.6191.00586-5.7627-.92578-9.413-2.85645a32.85057,32.85057,0,0,1-9.4698-7.62207l-.9267-1.082L364.02829,392.7881l.6406.8457c8.44151,11.1064,19.97561,16.7676,34.127,16.7676h.085c10.6474,0,19.3398-2.9092,25.8144-8.8018a30.24916,30.24916,0,0,0,4.3193-39.4502C425.3672,357.1621,418.8857,352.46,409.582,347.8672Z" style="fill:#01142A"/><path d="M587.59569,307.8906c-14.38669-.0146-26.51269,4.9336-36.0723,14.7569-9.5996,9.8134-14.4052,22.2441-14.39639,37.0263-.00881,14.42874,4.832,26.60061,14.43449,36.2354,9.6094,9.6465,22.1406,14.4922,37.2979,14.4922h.05661c9.75489,0,18.26079-1.7315,25.45019-5.2442a48.477,48.477,0,0,0,18.4834-16.1894l.8711-1.23928L611.458,377.28516l-.625.60742a30.47387,30.47387,0,0,1-22.09761,8.99707c-7.2393-.00781-13.02739-1.92383-17.585-5.69434A23.92616,23.92616,0,0,1,562.998,367.3145h76.34769l.0361-1.2481.0811-4.5381c.0068-16.0019-4.7861-29.0478-14.4287-38.8808C615.41409,312.8018,602.83889,307.876,587.59569,307.8906Zm-23.0674,38.1074c2.375-4.8105,4.9336-8.1474,7.499-10.0419a27.29972,27.29972,0,0,1,16.7569-5.3418,25.77768,25.77768,0,0,1,15.4072,4.7402,22.76531,22.76531,0,0,1,8.294,10.6435Z" style="fill:#01142A"/><polygon points="715.942 310.332 689.568 368.082 665.654 310.332 638.531 310.332 639.254 312.09 675.182 399.56 655.031 442.728 682.477 442.728 743.178 310.332 715.942 310.332" style="fill:#01142A"/><path d="M568.72849,166.99951l-82.6933-72.7173-82.73829,72.4815V240.6162l39.7636,32.2734V462.8975l43.16019,36.0947L528.959,462.8057v-81L495.373,354.5459l33.586-27.2578V272.8896l39.76949-32.2734ZM501.03709,395.1104V449.876l-14.9248,12.6269-15.1318-12.6591v-79.129Zm46.2715-197.0503-6.5117-5.733v34.9927l-39.7598,32.2735v40.2573h0v14.1396l-30.0566,24.3877V259.5933L431.2207,227.3159V192.4507l-6.3672,5.6094-6.4892-7.3829,32.2031-28.37979v-24.0591h13.3359v12.3193l22.10259-19.4819,66.5615,58.51659v.0063l1.2412,1.0786Z" style="fill:#01142A"/></svg>