<svg width="389" height="383" viewBox="0 0 389 383" fill="none" xmlns="http://www.w3.org/2000/svg">
<path opacity="0.25" d="M375.724 237.148C376.532 274.463 345.918 303.949 317.625 328.284C317.531 328.385 317.428 328.477 317.318 328.56L279.047 360.975C274.244 365.17 268.913 368.715 263.19 371.52C238.035 383.971 206.418 382.836 177.478 380.889C154.183 379.267 127.701 375.965 114.246 356.781C109.879 350.502 107.365 343.031 102.626 337.029C95.8338 328.373 85.2816 323.766 75.7239 318.372C62.8367 311.023 51.4642 301.277 42.2154 289.656C24.4746 267.365 15.4506 239.014 24.3372 212.594C24.4746 212.148 24.6445 211.694 24.8143 211.239C30.2319 196.306 40.7437 183.814 48.1424 169.756C71.972 124.711 65.0018 63.3702 102.521 28.8789C120.706 12.1687 145.951 5.67928 170.379 2.43458C195.874 -0.95614 222.129 -1.38606 247.034 4.92489C298.114 17.7658 340.105 60.7663 353.131 111.781C354.429 116.743 355.428 121.779 356.123 126.861C358.492 144.147 357.813 161.863 361.395 178.947C362.382 183.562 363.651 188.089 365.066 192.615C369.635 207.33 375.416 221.817 375.724 237.148Z" fill="#58A0D7"/>
<path opacity="0.2" d="M365.756 192.503V195.13H20.8745V95.2961H349.841C351.68 101.245 353.096 107.283 354.08 113.376C357.437 134.102 357.805 155.061 360.988 175.689C362.386 181.223 363.751 187.076 365.756 192.503Z" fill="url(#paint0_linear)"/>
<path d="M137.956 150.677C140.864 144.432 142.713 137.706 145.966 131.615C152.399 119.597 164.089 110.62 168.538 97.7313C173.893 99.8825 175.687 106.717 175.098 112.472C174.509 118.227 172.28 123.809 172.552 129.582C187.73 117.053 206.905 110.418 226.567 110.893C231.297 111.029 236.417 111.8 239.743 115.141C242.062 117.492 243.132 120.777 244.119 123.927C246.657 131.978 249.221 140.456 247.554 148.725C247.037 151.285 246.122 153.826 246.348 156.422C246.675 159.971 249.067 163.611 247.581 166.843C247.019 168.041 245.968 168.976 245.533 170.228C244.736 172.543 246.294 174.957 246.62 177.381C247.291 182.255 242.996 186.349 238.728 188.763C226.042 195.916 210.982 197.25 197.245 202.088C153.025 217.646 136.261 208.378 135.754 206.79C132.283 196.097 125.143 182.655 124.372 171.481C123.847 163.865 134.684 157.702 137.956 150.677Z" fill="#FEBA7B"/>
<path d="M160.927 184.443C158.752 188.001 163.817 192.222 166.001 195.771C167.097 197.587 168.294 199.402 170.178 200.364C171.846 201.19 173.803 201.127 175.661 201.054C179.394 200.891 183.254 200.7 186.58 198.984C191.717 196.343 194.49 190.697 196.638 185.324C202.981 169.494 206.823 151.739 201.622 135.464C200.126 130.781 197.517 125.97 192.95 124.164C188.519 122.421 183.535 123.991 179.158 125.861C176.621 126.95 171.773 128.248 170.36 130.79C169.1 133.041 175.778 160.163 160.927 184.443Z" fill="url(#paint1_linear)"/>
<path d="M139.442 222.112C138.807 223.138 137.883 223.953 136.787 224.454C117.133 236.172 61.0966 262.032 43.6533 276.818C37.4191 282.137 31.1667 287.711 23.9266 291.414C22.1143 289.139 20.3775 286.797 18.7163 284.389C18.7163 284.389 18.6528 284.289 18.6166 284.261C2.30599 260.58 -5.15157 231.988 3.89174 205.202C9.7998 204.639 21.6159 196.125 26.1738 194.001C42.9194 186.277 97.5326 167.279 115.239 162.023C116.752 161.551 118.492 161.116 119.942 161.805C121.058 162.522 121.947 163.542 122.506 164.746C129.967 177.859 135.2 192.122 137.992 206.954C138.753 210.848 139.315 214.805 139.732 218.754C139.951 219.878 139.851 221.042 139.442 222.112Z" fill="#286ECC"/>
<path d="M231.171 81.8561H180.155C174.87 81.8561 170.586 86.1476 170.586 91.4413V199.383C170.586 204.677 174.87 208.969 180.155 208.969H231.171C236.455 208.969 240.74 204.677 240.74 199.383V91.4413C240.74 86.1476 236.455 81.8561 231.171 81.8561Z" fill="#1D1D1D"/>
<path d="M237.187 89.8892H174.12V195.853H237.187V89.8892Z" fill="#FAFAFA"/>
<path d="M222.608 166.843H184.994C183.172 166.843 181.695 168.322 181.695 170.147V177.662C181.695 179.487 183.172 180.966 184.994 180.966H222.608C224.429 180.966 225.906 179.487 225.906 177.662V170.147C225.906 168.322 224.429 166.843 222.608 166.843Z" fill="#2F80ED"/>
<path d="M190.402 175.127H189.235V177.729H187.771V170.62H190.412C191.252 170.62 191.9 170.807 192.356 171.182C192.811 171.556 193.039 172.085 193.039 172.768C193.039 173.254 192.933 173.659 192.722 173.984C192.513 174.307 192.196 174.564 191.77 174.756L193.308 177.661V177.729H191.735L190.402 175.127ZM189.235 173.94H190.417C190.785 173.94 191.07 173.848 191.272 173.662C191.473 173.473 191.574 173.214 191.574 172.886C191.574 172.55 191.478 172.287 191.286 172.095C191.097 171.903 190.806 171.807 190.412 171.807H189.235V173.94ZM199.435 174.648H196.622V176.553H199.923V177.729H195.157V170.62H199.913V171.807H196.622V173.501H199.435V174.648ZM206.06 174.824H203.247V177.729H201.782V170.62H206.411V171.807H203.247V173.643H206.06V174.824ZM212.538 174.648H209.726V176.553H213.026V177.729H208.261V170.62H213.017V171.807H209.726V173.501H212.538V174.648ZM217.518 175.127H216.351V177.729H214.886V170.62H217.527C218.367 170.62 219.015 170.807 219.471 171.182C219.927 171.556 220.154 172.085 220.154 172.768C220.154 173.254 220.049 173.659 219.837 173.984C219.629 174.307 219.311 174.564 218.885 174.756L220.423 177.661V177.729H218.851L217.518 175.127ZM216.351 173.94H217.532C217.9 173.94 218.185 173.848 218.387 173.662C218.589 173.473 218.69 173.214 218.69 172.886C218.69 172.55 218.594 172.287 218.401 172.095C218.213 171.903 217.921 171.807 217.527 171.807H216.351V173.94Z" fill="white"/>
<path d="M225.371 152.347C226.078 153.445 227.247 154.253 227.646 155.497C228.362 157.757 226.196 159.854 225.652 162.168C224.809 165.799 228.008 169.221 227.682 172.888C227.446 175.675 225.208 178.252 225.87 180.957C223.151 176.982 216.31 178.679 213.9 182.864C211.489 187.048 212.178 192.249 212.993 197.005C213.9 201.979 215.522 207.725 220.243 209.477C223.804 210.784 227.709 209.232 231.18 207.707C229.482 201.48 227.936 195.214 226.54 188.909C230.742 188.852 234.89 189.867 238.592 191.859C240.096 187.13 240.114 182.074 240.123 177.118L240.169 143.107V125.552C240.169 122.048 242.334 121.794 239.761 119.607C236.426 125.116 226.214 122.212 225.697 128.747C225.344 133.149 228.416 136.372 227.32 140.974C226.567 144.559 222.997 148.616 225.371 152.347Z" fill="url(#paint2_linear)"/>
<path d="M301.234 303.323C300.81 303.866 300.271 304.309 299.657 304.621C294.157 307.843 288.276 311.201 281.888 311.174C272.509 311.111 271.15 319.026 264.762 312.155C256.325 303.078 239.634 284.352 231.832 274.694C225.19 266.525 222.889 258.301 222.191 247.727C221.937 244.278 221.72 240.665 223.015 237.434C223.704 235.618 227.247 228.221 228.072 226.414C228.26 225.99 228.426 225.557 228.57 225.116C229.993 220.905 229.368 216.348 227.818 211.982C226.849 209.322 225.636 206.757 224.193 204.321C220.243 197.577 215.34 190.933 214.77 183.172C214.643 181.184 214.833 179.024 216.102 177.445C217.995 175.039 221.756 174.912 224.474 176.337C227.193 177.762 229.087 180.295 230.863 182.8C235.756 189.853 240.341 197.105 244.545 204.585C246.847 201.507 251.115 200.373 254.848 201.199C258.582 202.025 261.771 204.485 264.136 207.498C265.686 209.522 267.045 211.828 269.292 212.999C271.105 213.952 273.207 214.015 275.137 214.614C282.15 216.711 285.249 224.653 288.539 231.207C290.976 236.081 293.976 240.701 295.788 245.866C297.464 250.74 297.935 255.969 298.153 261.124C298.724 274.014 297.836 287.148 301.252 299.592C301.578 300.818 301.932 302.261 301.234 303.323Z" fill="#FEBA7B"/>
<path d="M248.197 293.547C251.713 297.051 259.352 306.191 262.877 309.695C264.463 311.283 266.148 312.926 268.314 313.543C270.126 314.052 267.906 308.161 269.745 307.852C278.644 306.364 293.088 303.922 301.37 300.337L299.929 293.656C297.12 292.158 285.222 294.482 281.806 294.654C276.079 294.939 270.34 294.978 264.589 294.772C261.635 294.673 250.281 295.617 248.197 293.547Z" fill="url(#paint3_linear)"/>
<path d="M332.523 334.666C332.417 334.778 332.302 334.882 332.179 334.974L292.952 368.096L289.327 371.2C283.944 375.895 277.97 379.862 271.558 383C261.798 357.993 255.727 310.721 255.727 310.721L260.947 309.169L308.347 295.208L332.523 334.666Z" fill="#286ECC"/>
<g opacity="0.2">
<path d="M292.952 368.095L289.327 371.2C283.944 375.894 277.97 379.861 271.558 383C261.798 357.993 255.727 310.72 255.727 310.72L260.947 309.168C263.145 308.686 265.368 308.328 267.607 308.097C271.53 316.802 275.418 325.507 278.544 334.565C280.411 340.011 282.024 345.512 284.108 350.904C286.192 356.295 289.2 360.534 292.109 365.427C292.584 366.242 292.872 367.154 292.952 368.095Z" fill="url(#paint4_linear)" style="mix-blend-mode:multiply"/>
</g>
<path d="M347.195 117.078H255.031V165.304H347.195V117.078Z" fill="#375A26"/>
<path d="M341.685 132.009V151.333C337.59 151.424 334.273 155.627 334.273 160.828C334.266 161.05 334.281 161.272 334.318 161.49H269.91C269.928 161.27 269.928 161.048 269.91 160.828C269.91 155.581 266.557 151.333 262.425 151.333C261.882 151.338 261.342 151.417 260.821 151.569V131.8C261.342 131.952 261.882 132.031 262.425 132.036C266.557 132.036 269.873 127.833 269.91 122.587H334.246C334.336 127.788 337.626 131.945 341.685 132.009Z" fill="#375A26"/>
<path d="M300.447 153.422V150.227C298.736 150.218 297.061 149.734 295.608 148.829L296.36 146.705C297.71 147.582 299.282 148.054 300.891 148.066C303.138 148.066 304.66 146.768 304.66 144.962C304.66 143.156 303.428 142.139 301.081 141.195C297.855 139.924 295.862 138.472 295.862 135.749C295.862 133.026 297.728 131.12 300.637 130.639V127.444H302.621V130.521C304.065 130.526 305.483 130.908 306.735 131.628L305.938 133.716C304.737 132.996 303.36 132.622 301.96 132.636C299.522 132.636 298.598 134.097 298.598 135.359C298.598 137.001 299.776 137.827 302.522 138.989C305.784 140.315 307.433 141.967 307.433 144.789C307.433 147.286 305.693 149.636 302.431 150.172V153.467L300.447 153.422Z" fill="#375A26"/>
<path d="M348.102 116.171H255.938V164.396H348.102V116.171Z" fill="#446D2F"/>
<path d="M342.593 131.101V150.426C338.497 150.517 335.181 154.719 335.181 159.92C335.173 160.142 335.188 160.364 335.226 160.583H270.817C270.835 160.362 270.835 160.141 270.817 159.92C270.817 154.674 267.464 150.426 263.332 150.426C262.79 150.43 262.25 150.51 261.729 150.662V130.892C262.25 131.044 262.79 131.124 263.332 131.128C267.464 131.128 270.781 126.926 270.817 121.679H335.153C335.244 126.88 338.533 131.038 342.593 131.101Z" fill="#446D2F"/>
<path d="M301.354 152.514V149.319C299.643 149.31 297.968 148.826 296.515 147.921L297.267 145.797C298.617 146.674 300.189 147.146 301.798 147.159C304.045 147.159 305.568 145.861 305.568 144.054C305.568 142.248 304.335 141.231 301.988 140.287C298.762 139.017 296.769 137.564 296.769 134.841C296.769 132.118 298.636 130.212 301.544 129.731V126.536H303.529V129.613C304.973 129.619 306.39 130 307.643 130.72L306.845 132.808C305.644 132.088 304.267 131.714 302.867 131.728C300.43 131.728 299.505 133.189 299.505 134.451C299.505 136.094 300.683 136.92 303.429 138.082C306.691 139.407 308.34 141.059 308.34 143.882C308.34 146.378 306.601 148.729 303.338 149.264V152.559L301.354 152.514Z" fill="#446D2F"/>
<path d="M349.917 114.355H257.753V162.581H349.917V114.355Z" fill="#568C3C"/>
<path d="M344.408 129.286V148.611C340.312 148.701 336.996 152.904 336.996 158.105C336.988 158.327 337.003 158.549 337.041 158.768H272.632C272.65 158.547 272.65 158.326 272.632 158.105C272.632 152.859 269.28 148.611 265.148 148.611C264.605 148.615 264.065 148.695 263.544 148.847V129.077C264.065 129.229 264.605 129.309 265.148 129.313C269.28 129.313 272.596 125.111 272.632 119.864H336.969C337.059 125.065 340.348 129.223 344.408 129.286Z" fill="#629F44"/>
<path d="M303.169 150.699V147.504C301.458 147.495 299.783 147.011 298.33 146.106L299.082 143.982C300.432 144.859 302.004 145.331 303.613 145.343C305.86 145.343 307.383 144.045 307.383 142.239C307.383 140.433 306.15 139.416 303.803 138.472C300.578 137.201 298.584 135.749 298.584 133.026C298.584 130.303 300.451 128.397 303.359 127.916V124.721H305.344V127.798C306.788 127.803 308.206 128.185 309.458 128.905L308.66 130.993C307.459 130.273 306.082 129.899 304.682 129.913C302.245 129.913 301.321 131.374 301.321 132.636C301.321 134.279 302.499 135.105 305.244 136.267C308.506 137.592 310.155 139.244 310.155 142.067C310.155 144.563 308.416 146.914 305.154 147.449V150.744L303.169 150.699Z" fill="white"/>
<path d="M178.152 119.108C179.883 114.252 179.729 108.887 178.56 103.868C177.79 100.537 176.512 97.1964 174.084 94.791C173.513 94.1105 172.701 93.6779 171.818 93.5838C170.16 93.5838 169.191 95.3992 168.629 96.9604C166.273 103.502 164.134 110.119 162.213 116.812C161.166 119.895 160.604 123.122 160.546 126.379C160.709 131.952 163.772 136.281 168.774 131.888C172.661 128.457 176.376 124.073 178.152 119.108Z" fill="#FEBA7B"/>
<path d="M231.751 116.457C228.833 117.51 226.314 120.252 226.432 123.365C226.531 125.906 228.353 128.139 230.546 129.419C232.819 130.575 235.269 131.345 237.795 131.697C235.6 132.037 233.519 132.896 231.722 134.203C229.926 135.51 228.466 137.228 227.465 139.213C226.042 142.072 225.816 145.885 228.036 148.19C228.845 148.982 229.807 149.599 230.863 150.005C232.668 150.763 234.59 151.202 236.544 151.303C232.168 151.095 227.873 154.735 227.646 159.11C227.419 163.485 231.66 167.633 236.001 167.034C232.702 166.498 229.34 169.022 228.516 172.262C228.179 173.906 228.31 175.612 228.895 177.185C229.48 178.758 230.495 180.134 231.823 181.157C233.175 182.143 234.71 182.845 236.339 183.223C237.968 183.6 239.655 183.645 241.302 183.354C242.96 183.1 244.709 182.446 245.597 181.039C246.485 179.632 246.267 177.817 246.077 176.165C243.938 157.675 251.278 139.168 246.675 120.941C246.068 118.563 241.936 116.675 239.607 116.004C236.999 115.403 234.273 115.56 231.751 116.457Z" fill="#FEBA7B"/>
<path d="M139.442 222.112C138.807 223.138 137.883 223.953 136.787 224.454C117.132 236.172 61.0964 262.032 43.6531 276.818C37.4188 282.137 31.1664 287.711 23.9263 291.414C21.9789 289.236 20.2348 286.885 18.716 284.388C18.716 284.388 18.6526 284.289 18.6163 284.261C14.9116 278.141 11.5242 271.833 8.46753 265.363C28.5114 267.578 135.744 206.79 135.744 206.79C136.496 206.716 137.254 206.759 137.992 206.917C138.753 210.811 139.315 214.769 139.732 218.717C139.958 219.853 139.858 221.031 139.442 222.112Z" fill="#2058A3"/>
<path d="M239 245.766C239.084 246.553 238.87 247.344 238.402 247.981C237.36 249.052 235.593 248.262 234.36 247.409C231.479 245.476 228.416 243.225 227.718 239.839C227.509 238.204 227.586 236.546 227.945 234.937C228.353 232.214 228.606 229.392 228.76 226.578C228.759 226.084 228.695 225.593 228.57 225.116C229.993 220.905 229.367 216.348 227.818 211.982C231.261 218.69 235.112 228.792 235.846 230.626C237.814 235.437 238.883 240.569 239 245.766Z" fill="url(#paint5_linear)"/>
<path d="M205.567 152.474C217.848 152.474 227.803 142.722 227.803 130.692C227.803 118.662 217.848 108.91 205.567 108.91C193.287 108.91 183.332 118.662 183.332 130.692C183.332 142.722 193.287 152.474 205.567 152.474Z" fill="#568C3C"/>
<path d="M205.649 150.659C216.677 150.659 225.616 141.719 225.616 130.692C225.616 119.664 216.677 110.725 205.649 110.725C194.622 110.725 185.682 119.664 185.682 130.692C185.682 141.719 194.622 150.659 205.649 150.659Z" fill="#629F44"/>
<path d="M204.018 143.327V143.809L204.5 143.827L206.435 143.898L206.953 143.917V143.398V140.597C210.179 139.914 211.967 137.529 211.967 134.927C211.967 133.436 211.514 132.223 210.602 131.216C209.706 130.226 208.395 129.465 206.731 128.802C205.355 128.235 204.443 127.777 203.874 127.292C203.341 126.838 203.12 126.371 203.12 125.721C203.12 125.227 203.303 124.698 203.729 124.292C204.152 123.888 204.858 123.563 205.981 123.563L205.985 123.563C207.299 123.55 208.59 123.892 209.716 124.549L210.221 124.844L210.434 124.299L211.233 122.252L211.392 121.845L211.009 121.633C209.822 120.976 208.5 120.592 207.144 120.507V117.986V117.486H206.644H204.673H204.173V117.986V120.697C202.814 120.981 201.664 121.571 200.828 122.431C199.901 123.383 199.386 124.639 199.386 126.093C199.386 127.571 199.951 128.72 200.948 129.649C201.924 130.558 203.306 131.25 204.938 131.876C206.118 132.334 206.951 132.788 207.487 133.304C208 133.798 208.251 134.358 208.251 135.096C208.251 136.481 207.052 137.625 204.974 137.626C203.455 137.613 201.972 137.179 200.698 136.374L200.176 136.044L199.962 136.624L199.199 138.688L199.057 139.073L199.407 139.288C200.798 140.14 202.385 140.629 204.018 140.713V143.327Z" fill="white" stroke="white"/>
<path d="M362.623 101.649H270.459V149.875H362.623V101.649Z" fill="#568C3C"/>
<path d="M357.114 116.58V135.905C353.018 135.995 349.702 140.198 349.702 145.399C349.694 145.621 349.71 145.843 349.747 146.062H285.338C285.356 145.841 285.356 145.619 285.338 145.399C285.338 140.153 281.986 135.905 277.854 135.905C277.311 135.909 276.771 135.989 276.25 136.141V116.371C276.771 116.523 277.311 116.603 277.854 116.607C281.986 116.607 285.302 112.405 285.338 107.158H349.675C349.765 112.359 353.054 116.516 357.114 116.58Z" fill="#629F44"/>
<path d="M315.875 137.993V134.798C314.164 134.789 312.489 134.305 311.037 133.4L311.789 131.276C313.139 132.153 314.711 132.625 316.319 132.637C318.567 132.637 320.089 131.339 320.089 129.533C320.089 127.727 318.857 126.71 316.51 125.766C313.284 124.495 311.29 123.043 311.29 120.32C311.29 117.597 313.157 115.691 316.066 115.21V112.015H318.05V115.092C319.494 115.097 320.912 115.479 322.164 116.199L321.367 118.287C320.165 117.567 318.789 117.193 317.389 117.207C314.951 117.207 314.027 118.668 314.027 119.93C314.027 121.573 315.205 122.399 317.951 123.56C321.213 124.886 322.862 126.538 322.862 129.361C322.862 131.857 321.122 134.208 317.86 134.743V138.038L315.875 137.993Z" fill="white"/>
<path d="M388.036 82.59H295.872V130.815H388.036V82.59Z" fill="#568C3C"/>
<path d="M382.527 97.5207V116.845C378.431 116.936 375.114 121.139 375.114 126.34C375.107 126.562 375.122 126.784 375.16 127.002H310.751C310.769 126.782 310.769 126.56 310.751 126.34C310.751 121.093 307.398 116.845 303.266 116.845C302.723 116.85 302.184 116.929 301.662 117.081V97.3119C302.184 97.4639 302.723 97.5433 303.266 97.5479C307.398 97.5479 310.715 93.3453 310.751 88.0989H375.087C375.178 93.2999 378.467 97.4571 382.527 97.5207Z" fill="#629F44"/>
<path d="M341.288 118.933V115.738C339.577 115.73 337.902 115.246 336.449 114.341L337.201 112.217C338.551 113.093 340.123 113.566 341.732 113.578C343.979 113.578 345.501 112.28 345.501 110.474C345.501 108.667 344.269 107.651 341.922 106.707C338.696 105.436 336.703 103.984 336.703 101.261C336.703 98.5377 338.569 96.6316 341.478 96.1505V92.9554H343.463V96.0325C344.906 96.0381 346.324 96.4197 347.576 97.1399L346.779 99.2275C345.578 98.5074 344.201 98.1337 342.801 98.1474C340.363 98.1474 339.439 99.6088 339.439 100.87C339.439 102.513 340.617 103.339 343.363 104.501C346.625 105.826 348.274 107.478 348.274 110.301C348.274 112.797 346.534 115.148 343.272 115.684V118.979L341.288 118.933Z" fill="white"/>
<defs>
<linearGradient id="paint0_linear" x1="190.898" y1="145.208" x2="536.787" y2="145.208" gradientUnits="userSpaceOnUse">
<stop stop-color="white" stop-opacity="0"/>
<stop offset="0.14" stop-color="white" stop-opacity="0.22"/>
<stop offset="0.3" stop-color="white" stop-opacity="0.45"/>
<stop offset="0.45" stop-color="white" stop-opacity="0.65"/>
<stop offset="0.6" stop-color="white" stop-opacity="0.8"/>
<stop offset="0.73" stop-color="white" stop-opacity="0.91"/>
<stop offset="0.85" stop-color="white" stop-opacity="0.98"/>
<stop offset="0.94" stop-color="white"/>
</linearGradient>
<linearGradient id="paint1_linear" x1="9867.37" y1="19085.6" x2="15009.4" y2="17525.2" gradientUnits="userSpaceOnUse">
<stop stop-color="#010101" stop-opacity="0"/>
<stop offset="0.95" stop-color="#010101"/>
</linearGradient>
<linearGradient id="paint2_linear" x1="8297.21" y1="19818.2" x2="12615.2" y2="20118.6" gradientUnits="userSpaceOnUse">
<stop stop-color="#010101" stop-opacity="0"/>
<stop offset="0.95" stop-color="#010101"/>
</linearGradient>
<linearGradient id="paint3_linear" x1="18643.8" y1="7390.83" x2="19655.5" y2="10479.6" gradientUnits="userSpaceOnUse">
<stop stop-color="#010101" stop-opacity="0"/>
<stop offset="0.95" stop-color="#010101"/>
</linearGradient>
<linearGradient id="paint4_linear" x1="14600.5" y1="30666.8" x2="9912.31" y2="32115.2" gradientUnits="userSpaceOnUse">
<stop stop-color="#010101" stop-opacity="0"/>
<stop offset="0.95" stop-color="#010101"/>
</linearGradient>
<linearGradient id="paint5_linear" x1="3746.89" y1="12244.6" x2="6161.09" y2="9692.6" gradientUnits="userSpaceOnUse">
<stop stop-color="#010101" stop-opacity="0"/>
<stop offset="0.95" stop-color="#010101"/>
</linearGradient>
</defs>
</svg>
